<?xml version="1.0" encoding="UTF-8" standalone="no"?>
<svg
   height="16"
   viewBox="0 0 16 16"
   width="16"
   version="1.1"
   id="svg1"
   sodipodi:docname="attacker.svg"
   inkscape:version="1.3 (0e150ed6c4, 2023-07-21)"
   xmlns:inkscape="http://www.inkscape.org/namespaces/inkscape"
   xmlns:sodipodi="http://sodipodi.sourceforge.net/DTD/sodipodi-0.dtd"
   xmlns="http://www.w3.org/2000/svg"
   xmlns:svg="http://www.w3.org/2000/svg">
  <path
     id="path2"
     style="fill:#ff2a2a;stroke:none;stroke-width:2.05224;stroke-linecap:round;stroke-linejoin:round;paint-order:markers stroke fill"
     d="M 8.9489255,2.5791465 5.5481991,8.9956114 7.8260442,10.824304 14.146262,7.7444007 14.53125,1.9375 Z M 13.183792,3.2849576 11.900499,6.0440375 7.4410563,9.059776 10.456795,4.6324153 Z"
     sodipodi:nodetypes="ccccccccccc" />
  <defs
     id="defs1" />
  <sodipodi:namedview
     id="namedview1"
     pagecolor="#ffffff"
     bordercolor="#111111"
     borderopacity="1"
     inkscape:showpageshadow="0"
     inkscape:pageopacity="0"
     inkscape:pagecheckerboard="1"
     inkscape:deskcolor="#d1d1d1"
     showgrid="false"
     inkscape:zoom="31.999999"
     inkscape:cx="5.2031252"
     inkscape:cy="4.8281252"
     inkscape:window-width="1366"
     inkscape:window-height="697"
     inkscape:window-x="-8"
     inkscape:window-y="-8"
     inkscape:window-maximized="1"
     inkscape:current-layer="svg1" />
  <g
     inkscape:groupmode="layer"
     id="layer1"
     inkscape:label="Layer 1" />
  <path
     style="fill:#ff2a2a;stroke:none;stroke-width:2.05224;stroke-linecap:round;stroke-linejoin:round;paint-order:markers stroke fill"
     d="M 2.4041313,7.6481538 2.1474727,9.7976705 6.7352454,13.679632 9.4943255,13.326726 Z"
     id="path1"
     sodipodi:nodetypes="ccccc" />
  <path
     style="fill:#ff2a2a;stroke:none;stroke-width:2.05224;stroke-linecap:round;stroke-linejoin:round;paint-order:markers stroke fill"
     d="m 3.1420249,11.658445 -1.8607748,1.251211 1.7645278,1.924939 1.572034,-1.924939 z"
     id="path3"
     sodipodi:nodetypes="ccccc" />
  <path
     style="fill:#ff2a2a;stroke:none;stroke-width:1.999;stroke-linecap:round;stroke-linejoin:round;paint-order:markers stroke fill"
     d="M 7.9375004,2.3125001 6.9062503,4.3437502 c 0,0 -0.84375,-1.1250001 -2.6562501,-1.2812501 -1.8125001,-0.15625 -3.28125016,0.40625 -3.28125016,0.40625 0,0 2.12500006,-1.625 3.93750016,-1.53125 1.8125001,0.09375 3.0312502,0.375 3.0312502,0.375 z m -2.4375002,0.90625"
     id="path4"
     sodipodi:nodetypes="ccscsc" />
  <path
     style="fill:#ff2a2a;stroke:none;stroke-width:1.57069;stroke-linecap:round;stroke-linejoin:round;paint-order:markers stroke fill"
     d="m 6.4876923,5.2953871 -0.8167045,1.583519 c 0,0 -0.6682127,-0.877026 -2.1036327,-0.9988351 -1.43542,-0.1218091 -2.59860512,0.3167037 -2.59860512,0.3167037 0,0 1.68290612,-1.2668151 3.11832612,-1.1937296 1.4354201,0.073086 2.4006162,0.292342 2.4006162,0.292342 z m -1.9303924,0.706493"
     id="path4-0"
     sodipodi:nodetypes="ccscsc" />
</svg>
