<?xml version="1.0" encoding="UTF-8" standalone="no"?>
<svg
   height="16"
   viewBox="0 0 16 16"
   width="16"
   version="1.1"
   id="svg1"
   sodipodi:docname="character_entity_2d.svg"
   inkscape:version="1.3 (0e150ed6c4, 2023-07-21)"
   xmlns:inkscape="http://www.inkscape.org/namespaces/inkscape"
   xmlns:sodipodi="http://sodipodi.sourceforge.net/DTD/sodipodi-0.dtd"
   xmlns="http://www.w3.org/2000/svg"
   xmlns:svg="http://www.w3.org/2000/svg">
  <defs
     id="defs1" />
  <sodipodi:namedview
     id="namedview1"
     pagecolor="#ffffff"
     bordercolor="#111111"
     borderopacity="1"
     inkscape:showpageshadow="0"
     inkscape:pageopacity="0"
     inkscape:pagecheckerboard="1"
     inkscape:deskcolor="#d1d1d1"
     inkscape:zoom="31.3125"
     inkscape:cx="4.3912176"
     inkscape:cy="8.3193613"
     inkscape:window-width="1366"
     inkscape:window-height="697"
     inkscape:window-x="-8"
     inkscape:window-y="-8"
     inkscape:window-maximized="1"
     inkscape:current-layer="svg1" />
  <path
     d="m 10.334578,0.99999983 a 0.83567499,1 0 0 1 0.835675,0.99999997 v 3 a 0.83567499,1 0 0 1 -0.835675,1 H 9.4989025 v 0.9900001 a 0.83567499,1 0 0 1 0.2640734,0.062 l 1.7139691,0.684 0.571602,-2.0510001 a 0.83573401,1.0000706 0 0 1 1.586111,0.6310001 l -0.835675,3 a 0.83567499,1 0 0 1 -1.057129,0.633 l -1.407276,-0.56 v 0.61 c 0,0.041 -0.01587,0.076 -0.02006,0.1160001 l 3.826556,3.052 a 0.83577921,1.0001248 0 1 1 -0.9276,1.664 L 8.9883052,11.461 7.738971,14.447 a 0.83567499,1 0 0 1 -1.0111667,0.502 l -2.5070249,-1 a 0.83567499,1 0 1 1 0.5281465,-1.897 l 1.8201002,0.725 0.8147831,-1.951 A 0.81979716,0.981 0 0 1 6.9918776,9.9989999 v -0.999 H 5.8361391 L 5.2327818,10.448 A 0.83621024,1.0006404 0 1 1 3.7369235,9.5529999 l 0.835675,-2 a 0.83567499,1 0 0 1 0.7479291,-0.553 h 2.507025 V 5.9999998 h -0.835675 a 0.83567499,1 0 0 1 -0.835675,-1 v -3 a 0.83567499,1 0 0 1 0.835675,-0.99999997 z m 0,1.99999997 H 9.4989025 v 2 h 0.8356755 z"
     fill="#8da5f3"
     id="path1"
     style="stroke-width:0.914153" />
  <path
     style="fill:#8da5f3;stroke:#8da5f3;stroke-width:1.15371;stroke-linecap:round;stroke-linejoin:round;stroke-dasharray:none;stroke-opacity:1;paint-order:markers stroke fill"
     d="M 5.0340639,1.8007197 H 2.1531543 Z"
     id="path2" />
  <path
     style="fill:#8da5f3;stroke:#8da5f3;stroke-width:1.15371;stroke-linecap:round;stroke-linejoin:round;stroke-dasharray:none;stroke-opacity:1;paint-order:markers stroke fill"
     d="M 5.0256556,3.5581816 H 2.1447461 Z"
     id="path2-0" />
  <path
     style="fill:#8da5f3;stroke:#8da5f3;stroke-width:1.15371;stroke-linecap:round;stroke-linejoin:round;stroke-dasharray:none;stroke-opacity:1;paint-order:markers stroke fill"
     d="M 5.036785,5.371935 H 2.1558754 Z"
     id="path2-0-8" />
</svg>
